<svg width="39" height="23" viewBox="0 0 39 23" fill="none" xmlns="http://www.w3.org/2000/svg">
<path fill-rule="evenodd" clip-rule="evenodd" d="M27.6785 0V6.29819e-05L27.6786 4.40214e-06L38.1628 11.5L27.6785 23L27.6785 23L0 23V0H27.6785ZM9.45428 12.5562C9.34692 12.9094 9.29324 13.145 9.29324 13.2627H10.6889C10.6889 13.2431 10.7426 13.0959 10.8499 12.8211C10.9573 12.5463 11.1362 12.2814 11.3867 12.0262C11.6372 11.7515 11.9772 11.6141 12.4067 11.6141C12.8719 11.6141 13.3192 11.7515 13.7486 12.0262C14.196 12.301 14.6701 12.5758 15.1711 12.8506C15.6722 13.1253 16.2268 13.2627 16.8352 13.2627C17.4615 13.2627 17.9804 13.1155 18.3919 12.8211C18.8214 12.5267 19.1613 12.1833 19.4118 11.7907C19.6623 11.3786 19.8413 11.0155 19.9486 10.7014C20.056 10.3678 20.1097 10.1715 20.1097 10.1126H18.714C18.714 10.1519 18.6514 10.2991 18.5261 10.5542C18.4188 10.8094 18.2309 11.0547 17.9625 11.2902C17.6941 11.5258 17.3273 11.6435 16.862 11.6435C16.361 11.6435 15.8779 11.5061 15.4127 11.2314C14.9475 10.937 14.4733 10.6524 13.9902 10.3776C13.525 10.1028 13.0061 9.96544 12.4335 9.96544C11.843 9.96544 11.351 10.1126 10.9573 10.407C10.5637 10.7014 10.2416 11.0449 9.99107 11.4374C9.74057 11.83 9.56164 12.2029 9.45428 12.5562Z" fill="white" fill-opacity="0.97"/>
</svg>
